<mxfile host="app.diagrams.net" modified="2024-03-26T08:17:54.092Z" agent="Mozilla/5.0 (Macintosh; Intel Mac OS X 10_15_7) AppleWebKit/537.36 (KHTML, like Gecko) Chrome/123.0.0.0 Safari/537.36" etag="PTahi6YjV4-fCPIUW5W7" version="24.1.0" type="device">
  <diagram name="第 1 页" id="f2GakVHI_LAMkfZst77-">
    <mxGraphModel dx="940" dy="601" grid="1" gridSize="10" guides="1" tooltips="1" connect="1" arrows="1" fold="1" page="1" pageScale="1" pageWidth="1169" pageHeight="827" math="0" shadow="0">
      <root>
        <mxCell id="0" />
        <mxCell id="1" parent="0" />
      </root>
    </mxGraphModel>
  </diagram>
</mxfile>
